<svg width="19" height="19" fill="none" xmlns="http://www.w3.org/2000/svg"><path d="M8.764 6.621C7.406 4.207 5.953 2.238 5.847 2.093A7.876 7.876 0 001.51 7.58c.206.004 3.482.043 7.254-.959zm.978 2.64c.103-.033.206-.064.309-.094-.2-.451-.412-.897-.637-1.336-4.046 1.212-7.928 1.124-8.065 1.12-.003.084-.007.166-.007.25 0 2.019.763 3.861 2.016 5.252l-.005-.006s2.15-3.814 6.389-5.186zM4.37 15.394v-.004c-.058-.045-.12-.086-.178-.135.106.085.178.139.178.139zM7.317 1.572a.552.552 0 01-.015.004c.006-.002.014-.002.014-.002l.001-.002zm7.071 1.732a7.83 7.83 0 00-5.189-1.961c-.639 0-1.258.078-1.852.221.12.16 1.595 2.119 2.938 4.584 2.962-1.109 4.081-2.812 4.103-2.844zM9.199 18.4A9.2 9.2 0 119.201 0a9.2 9.2 0 01-.002 18.4zm1.336-7.914c-4.611 1.607-6.134 4.838-6.165 4.904a7.818 7.818 0 004.828 1.666 7.829 7.829 0 003.067-.621c-.116-.689-.573-3.096-1.679-5.967a1.542 1.542 0 01-.051.018zm.354-3.166c.184.373.358.754.523 1.139.059.135.114.272.17.406 2.713-.342 5.385.238 5.473.256a7.84 7.84 0 00-1.787-4.912c-.018.023-1.279 1.843-4.379 3.111zm1.171 2.785c1.031 2.836 1.449 5.142 1.529 5.611a7.857 7.857 0 003.367-5.27c-.156-.05-2.356-.747-4.896-.341z" fill="#fff"/></svg>