<svg width="18" height="30" fill="none" xmlns="http://www.w3.org/2000/svg"><g clip-path="url(#clip0_1_27)"><path d="M10.761 26.273c0-.485-.172-.9-.517-1.244A1.696 1.696 0 009 24.51c-.484 0-.899.173-1.244.518-.345.345-.517.76-.517 1.244s.172.899.517 1.244c.345.345.76.517 1.244.517s.9-.172 1.244-.517c.345-.345.517-.76.517-1.244zm4.58-3.523V7.25c0-.19-.07-.356-.21-.495a.677.677 0 00-.495-.21H3.364a.678.678 0 00-.496.21.677.677 0 00-.209.495v15.5c0 .19.07.356.21.495.139.14.304.21.495.21h11.272c.191 0 .356-.07.496-.21a.675.675 0 00.209-.495zM11.114 4.08c0-.235-.118-.353-.353-.353H7.24c-.235 0-.353.118-.353.353 0 .234.118.352.353.352h3.522c.235 0 .353-.118.353-.352zm6.34-.353v22.546c0 .763-.278 1.424-.836 1.981-.558.558-1.218.837-1.982.837H3.364c-.764 0-1.424-.279-1.982-.837-.558-.558-.837-1.218-.837-1.981V3.727c0-.763.28-1.424.837-1.981C1.94 1.188 2.6.909 3.364.909h11.272c.764 0 1.424.279 1.982.837.558.557.837 1.218.837 1.981z" fill="#fff"/></g><defs><clipPath id="clip0_1_27"><path fill="#fff" transform="translate(.545 .91)" d="M0 0h16.909v28.182H0z"/></clipPath></defs></svg>