<svg width="42" height="42" fill="none" xmlns="http://www.w3.org/2000/svg"><path d="M10.327 19.281c.369-2.797 2.84-5.328 7.363-7.534l.814-.397-3.338-6.164-.754.382C4.85 10.415 0 17.266 0 25.93c0 2.99.949 5.572 2.82 7.674 1.899 2.132 4.202 3.213 6.847 3.213 2.377 0 4.392-.846 5.99-2.515 1.587-1.659 2.392-3.72 2.392-6.124 0-2.272-.813-4.297-2.416-6.019-1.415-1.518-3.197-2.484-5.306-2.878zm4.075 13.82c-1.275 1.332-2.824 1.98-4.735 1.98-2.158 0-3.973-.861-5.549-2.632-1.602-1.8-2.381-3.932-2.381-6.519 0-3.97 1.118-7.556 3.323-10.655 2.104-2.957 5.26-5.568 9.388-7.768l1.672 3.087c-5.03 2.636-7.579 5.805-7.579 9.428v.775l.771.088c2.076.235 3.728 1.039 5.05 2.458 1.312 1.41 1.95 2.99 1.95 4.835 0 1.97-.624 3.58-1.91 4.923zm19.494-13.817c.364-2.8 2.816-5.332 7.302-7.538L42 11.35l-3.256-6.168-.76.384c-9.608 4.847-14.479 11.699-14.479 20.363 0 2.992.961 5.575 2.857 7.678 1.919 2.13 4.232 3.21 6.874 3.21 2.38 0 4.386-.849 5.963-2.521 1.563-1.658 2.356-3.717 2.356-6.119 0-2.272-.813-4.297-2.417-6.019-1.411-1.515-3.172-2.48-5.242-2.875zm4.04 13.821c-1.254 1.33-2.79 1.976-4.7 1.976-2.16 0-3.986-.862-5.584-2.636-1.622-1.8-2.41-3.93-2.41-6.515 0-3.97 1.123-7.555 3.338-10.653 2.114-2.957 5.283-5.567 9.428-7.768l1.627 3.083c-4.993 2.637-7.524 5.807-7.524 9.43v.774l.769.088c2.033.235 3.665 1.04 4.987 2.46 1.313 1.408 1.95 2.99 1.95 4.834.001 1.972-.615 3.584-1.882 4.927z" fill="#8643DC"/></svg>