<svg width="28" height="28" viewBox="0 0 28 28" fill="none" xmlns="http://www.w3.org/2000/svg">
<path d="M3.49999 21C3.49245 21.4445 3.61667 21.8813 3.85699 22.2554C4.05672 22.5694 4.32868 22.8311 4.65016 23.0186C4.97164 23.2062 5.33331 23.3141 5.70499 23.3334C6.45865 23.3719 5.07849 23.3334 5.83332 23.3334H9.33332C9.33306 22.0598 8.91534 20.8214 8.14413 19.8078C7.37291 18.7943 6.29073 18.0615 5.06332 17.7217C5.71432 16.5865 6.50999 15.2145 7.44332 13.6022C9.38102 14.3869 11.0403 15.7323 12.2084 17.466C13.3766 19.1997 14.0004 21.2428 14 23.3334H18.6667C19.4402 23.3334 21.3932 23.3392 22.1667 23.3334C22.5473 23.3307 22.9216 23.2349 23.2568 23.0544C23.5919 22.8738 23.8779 22.614 24.0896 22.2976C24.3013 21.9812 24.4323 21.6178 24.4713 21.2391C24.5103 20.8604 24.4561 20.4779 24.3133 20.125L16.03 5.83335C15.8282 5.46865 15.5324 5.16465 15.1734 4.95297C14.8143 4.74128 14.4051 4.62964 13.9883 4.62964C13.5715 4.62964 13.1623 4.74128 12.8033 4.95297C12.4442 5.16465 12.1484 5.46865 11.9467 5.83335L9.79999 9.53869C15.029 11.9304 18.6667 17.2049 18.6667 23.3334" stroke="white" stroke-width="2" stroke-linecap="round" stroke-linejoin="round"/>
</svg>
